<?xml version="1.0" encoding="utf-8"?>
<!-- Generator: Adobe Illustrator 17.0.2, SVG Export Plug-In . SVG Version: 6.00 Build 0)  -->
<!DOCTYPE svg PUBLIC "-//W3C//DTD SVG 1.1//EN" "http://www.w3.org/Graphics/SVG/1.1/DTD/svg11.dtd">
<svg version="1.1" id="Layer_1" xmlns="http://www.w3.org/2000/svg" xmlns:xlink="http://www.w3.org/1999/xlink" x="0px" y="0px"
	 width="88.971px" height="25.4px" viewBox="0 0 88.971 25.4" enable-background="new 0 0 88.971 25.4" xml:space="preserve">
<g>
	<g>
		<path fill="#FFF200" d="M2.932,17.192L6.605,0.02h2.432L5.364,17.192H2.932z"/>
		<path fill="#FFF200" stroke="#FFF200" stroke-width="2" stroke-miterlimit="10" d="M19.949,14.221
			c-1.825,1.262-4.074,1.892-6.745,1.892H7.461L10.689,1.02h6.567c2.196,0,3.866,0.49,5.008,1.469
			c1.083,0.935,1.625,2.264,1.625,3.985c0,0.654-0.082,1.359-0.245,2.115C23.14,11.008,21.909,12.885,19.949,14.221z M20.996,4.426
			c-0.772-0.98-2.159-1.469-4.163-1.469h-4.43l-2.382,11.22h3.673c2.122,0,3.858-0.472,5.209-1.414
			c1.35-0.942,2.218-2.333,2.605-4.174c0.148-0.638,0.222-1.224,0.222-1.759C21.73,5.837,21.486,5.035,20.996,4.426z"/>
		<polygon fill="#FFF200" points="5.255,0 6.11,0 2.404,17.2 1.501,17.248 		"/>
		<polygon fill="#FFF200" points="4.043,0 4.898,0 1.192,17.2 0.289,17.248 		"/>
		<g>
			<path fill="#FFFFFF" d="M82.599,15.883l-6.802-10.31l-2.195,10.31h-4.304L68.14,11.67h-6.397l-2.971,4.213h-4.479l1.807-8.463
				l-6.375,8.463H47.66l-2.863-8.662l-1.848,8.662h-4.304l-1.158-4.213h-6.397l-2.971,4.213h-3.505l10.91-15.284h2.22l3.036,11.186
				l2.393-11.186h2.747l3.586,10.918l8.253-10.918h2.848l-2.382,11.142l7.952-11.142h2.222l3.035,11.186l2.393-11.186h2.494
				l0.146,0.235c0.901,1.443,2.138,3.323,3.677,5.588c1.318,1.934,2.319,3.413,2.99,4.42l2.174-10.244h3.046l-3.269,15.284H82.599z
				 M67.379,8.837l-1-3.625l-2.596,3.625H67.379z M36.725,8.837l-1-3.625L33.13,8.837H36.725z"/>
			<path fill="#FFFFFF" d="M87.734,1.099l-3.055,14.284h-1.811L75.557,4.301l-2.36,11.082h-1.306h-0.717h-1.496L68.52,11.17h-7.037
				l-2.971,4.213h-1.579h-0.696H54.91l2.149-10.07l-7.585,10.07h-1.453l-3.329-10.07l-2.149,10.07h-1.306h-0.717h-1.496
				l-1.158-4.213H30.83l-2.971,4.213h-2.275L35.781,1.099h1.58l3.476,12.807l2.739-12.807h1.981l3.771,11.482l8.68-11.482h1.981
				l-2.757,12.893l9.203-12.893h1.58l3.476,12.808L74.23,1.099h1.812c0.913,1.461,2.142,3.329,3.687,5.604
				c1.868,2.739,3.083,4.544,3.645,5.414l2.339-11.019H87.734 M62.811,9.337h5.225L66.582,4.07L62.811,9.337 M32.157,9.337h5.225
				L35.928,4.07L32.157,9.337 M88.971,0.099h-1.236h-2.023h-0.81l-0.168,0.792l-1.844,8.69c-0.608-0.904-1.383-2.046-2.335-3.441
				c-1.525-2.246-2.759-4.121-3.665-5.571l-0.294-0.47h-0.554H74.23h-0.809L73.252,0.89l-1.877,8.774l-2.396-8.827l-0.2-0.738
				h-0.765h-1.58h-0.515L65.62,0.518l-6.404,8.971l1.75-8.181l0.259-1.209h-1.236h-1.981h-0.498l-0.3,0.397l-7.528,9.958
				l-3.175-9.667L46.28,0.099h-0.724h-1.981h-0.809L42.598,0.89l-1.876,8.773l-2.395-8.826l-0.2-0.738h-0.765h-1.58h-0.515
				l-0.299,0.419L24.77,14.802l-1.129,1.581h1.942h2.275h0.518l0.299-0.424l2.672-3.789h5.756l0.956,3.478l0.202,0.735h0.762h1.496
				h0.717h1.306h0.809l0.169-0.791l1.379-6.463l2.171,6.568l0.227,0.686h0.723h1.453h0.499l0.3-0.398l4.864-6.458l-1.205,5.648
				l-0.258,1.209h1.236h1.327h0.696h1.579h0.518l0.299-0.424l2.672-3.789h5.756l0.956,3.478l0.202,0.735h0.762h1.496h0.717h1.306
				h0.809l0.169-0.792l1.862-8.746l5.995,9.088l0.296,0.449h0.538h1.811h0.809l0.169-0.791l3.055-14.284L88.971,0.099L88.971,0.099z
				 M34.103,8.337l1.419-1.981l0.547,1.981H34.103L34.103,8.337z M64.757,8.337l1.419-1.981l0.547,1.981H64.757L64.757,8.337z"/>
		</g>
	</g>
	<text transform="matrix(1 0 0 1 -5.048985e-05 23.7477)" fill="#FFFFFF" font-family="'MyriadPro-Regular'" font-size="6.6089">WASPADA, AWASI, LAPORKAN</text>
</g>
</svg>
